PathFileType	4	(X/Y/Z)	regression/subject04/trials/walk2/markers.trc
DataRate	CameraRate	NumFrames	NumMarkers	Units	OrigDataRate	OrigDataStartFrame	OrigNumFrames
199.9999999999954	199.9999999999954	4	64	m	199.9999999999954	195	223
Frame#	Time	CLAV			C7			RACR			RASH			RPSH			RLEL			RMEL			RUA1			RUA2			RUA3			RFAsuperior			RFAradius			RFAulna			RASI			RPSI			RCAL			RTOE			RMT5			RTH1			RTH2			RTH3			RTB1			RTB2			RTB3			RLFC			RMFC			RLMAL			RMMAL			RHJC			RKJC			REJC			RAJC			RSJC			LACR			LASH			LPSH			LLEL			LMEL			LUA1			LUA2			LUA3			LFAsuperior			LFAradius			LFAulna			LASI			LPSI			LCAL			LTOE			LMT5			LTH1			LTH2			LTH3			LTB1			LTB2			LTB3			LLFC			LMFC			LLMAL			LMMAL			LHJC			LKJC			LEJC			LAJC			LSJC			
		X1	Y1	Z1	X2	Y2	Z2	X3	Y3	Z3	X4	Y4	Z4	X5	Y5	Z5	X6	Y6	Z6	X7	Y7	Z7	X8	Y8	Z8	X9	Y9	Z9	X10	Y10	Z10	X11	Y11	Z11	X12	Y12	Z12	X13	Y13	Z13	X14	Y14	Z14	X15	Y15	Z15	X16	Y16	Z16	X17	Y17	Z17	X18	Y18	Z18	X19	Y19	Z19	X20	Y20	Z20	X21	Y21	Z21	X22	Y22	Z22	X23	Y23	Z23	X24	Y24	Z24	X25	Y25	Z25	X26	Y26	Z26	X27	Y27	Z27	X28	Y28	Z28	X29	Y29	Z29	X30	Y30	Z30	X31	Y31	Z31	X32	Y32	Z32	X33	Y33	Z33	X34	Y34	Z34	X35	Y35	Z35	X36	Y36	Z36	X37	Y37	Z37	X38	Y38	Z38	X39	Y39	Z39	X40	Y40	Z40	X41	Y41	Z41	X42	Y42	Z42	X43	Y43	Z43	X44	Y44	Z44	X45	Y45	Z45	X46	Y46	Z46	X47	Y47	Z47	X48	Y48	Z48	X49	Y49	Z49	X50	Y50	Z50	X51	Y51	Z51	X52	Y52	Z52	X53	Y53	Z53	X54	Y54	Z54	X55	Y55	Z55	X56	Y56	Z56	X57	Y57	Z57	X58	Y58	Z58	X59	Y59	Z59	X60	Y60	Z60	X61	Y61	Z61	X62	Y62	Z62	X63	Y63	Z63	X64	Y64	Z64	

196	2.385	2.453540158384881	1.453813841781138	-0.4980440068759203	2.343248610933559	1.5383750700741	-0.5085001866022542	2.40987941936619	1.511860668033319	-0.352581723386805	2.44574707172527	1.446650851651808	-0.3022887475069287	2.346992163703235	1.470229210903172	-0.3106592383278509	2.278023497029438	1.19240886538243	-0.2208921314403291	2.269358864903856	1.1756353103334	-0.3119476320651767	2.373343978372181	1.414516863944695	-0.2782867415206413	2.30120171025133	1.272324149105195	-0.2566029868698781	2.369651296225949	1.322085808050728	-0.2598201881974715	2.310856817071893	1.094339139288378	-0.2626120260986083	2.373960681592028	0.9292061703882519	-0.2392427584005468	2.31356346916784	0.9117938540607253	-0.2290422451047505	2.429069006693214	1.008269407751646	-0.3675173849841494	2.261929259567196	1.041369491728904	-0.4563989619953553	2.398771282905055	0.1069974243132581	-0.3776267773827722	2.658769809391518	0.0795187703676907	-0.4048200169651093	2.58625384194812	0.04743636901951172	-0.3111441731913238	2.437262761541787	0.7925168767078329	-0.3286607968788469	2.55099079860525	0.749516117979339	-0.3830386259935662	2.50466199213488	0.6471539073467242	-0.3177853792783611	2.528542117490531	0.3661925626680751	-0.32608875083683	2.557898510884215	0.2773494151300385	-0.385023745277188	2.515479105143766	0.2111472066751058	-0.3196523323635975	2.54785274775352	0.5434256949865552	-0.3192347705714305	2.563101570943519	0.5377975244278248	-0.4369914466697393	2.477727471559418	0.111940031940797	-0.3223819551043642	2.490132720700124	0.1098327367186874	-0.4228543427770928	2.353134974821335	0.9192438346070462	-0.4224119722548308	2.561976732844513	0.5376982840745775	-0.3801340205599936	2.278047019891266	1.177028706569195	-0.2717313451796597	2.469580226396884	0.1008368914528744	-0.380884803127309	2.399485335062348	1.457696134043109	-0.3062099039319897	2.43379327435662	1.506188861404914	-0.6506935662531431	2.477019035943523	1.439233873753125	-0.692127311255217	2.370363735279726	1.464698501744599	-0.701167441341813	2.39449523508473	1.169565450563504	-0.8069281931218415	2.354899806242148	1.150393255743961	-0.725000426266718	2.424340938042885	1.403707777316468	-0.7294768968598663	2.389407468418602	1.25175680990334	-0.7692766006405053	2.442691397900668	1.312207687304297	-0.7432298506341142	2.442082752432248	1.094003173909815	-0.7408608101607184	2.56797024899036	0.971697687703452	-0.7093834522340171	2.527365944757876	0.9292705655767581	-0.7340064554188955	2.433797485374459	1.010309859149873	-0.6326299119222107	2.26358561107934	1.042084246935968	-0.5492659419447011	2.103423505912981	0.06704266179462327	-0.573144039674788	2.362741926515961	0.04715651655181044	-0.5350352422635265	2.294859285282561	0.01073080242060324	-0.6305764589527515	2.356579755918041	0.7574785187570878	-0.6550634270026467	2.416695210811373	0.6639204341905234	-0.5817620159659714	2.324955155199157	0.6001795022128538	-0.6481187975962294	2.254310315211335	0.3218385212978031	-0.624942598048673	2.274497084017737	0.2327946299843224	-0.5625573750215412	2.230589752549292	0.1679650184942799	-0.6283207974642082	2.297607911805924	0.4920010979013658	-0.6348280013493015	2.295372535957893	0.4941035557782267	-0.5159944183690091	2.185804862616217	0.0717441307703709	-0.6250720135898016	2.193315807682168	0.07150184225892847	-0.5240940031887809	2.355978746328629	0.9204709898803294	-0.5818542582745299	2.297270170671224	0.4919959376094152	-0.5734267592075438	2.377781934376395	1.153743199589104	-0.7590586052228989	2.174162357620588	0.06282705435680491	-0.5667866948131992	2.430757299280601	1.450279156144427	-0.6960484676802781	
197	2.39	2.459596278924696	1.45309919756959	-0.4976309293456733	2.349357988983665	1.537729862781106	-0.5080869515733062	2.415953261234812	1.511149187365144	-0.3521645903557422	2.451774643672167	1.445909174321528	-0.3018777996502146	2.353035271854199	1.469549556573329	-0.3102566289235608	2.282393400937849	1.192328317194452	-0.2209096436383797	2.273955945580954	1.175600074165886	-0.3119948094183999	2.379059579096737	1.413940066966238	-0.2779708460289681	2.306107922559914	1.272122641730595	-0.2565387689745007	2.37482486000897	1.321529316704826	-0.2595190174714883	2.31469232272385	1.094026539240032	-0.2624709189445235	2.376483782620228	0.928438719729261	-0.2388148981161612	2.315915562768818	0.9114676295696693	-0.2288884011093471	2.434828316032037	1.007287460260904	-0.3673197862429506	2.267693267475516	1.040866474243087	-0.4560303872139942	2.417767659331845	0.1005003616675926	-0.3765632054673137	2.678576142985471	0.0811719379162083	-0.4030042600294551	2.606881574297628	0.04726553849594103	-0.3093386066859492	2.442323247232761	0.7912662429482906	-0.3287389718417914	2.555893210868232	0.747993513629104	-0.3832313036130626	2.509222943289285	0.6456483170073579	-0.3181950557661441	2.538314239369689	0.3640855389047504	-0.3259832875379715	2.570893294694567	0.2760311606625832	-0.3844064669598322	2.530624402480317	0.2087130395490889	-0.3188149514750654	2.552055711657781	0.5417753239407318	-0.3198801108801571	2.567265123979177	0.5363535957452336	-0.4376515688759375	2.496346826202857	0.1082426477068507	-0.3211491162009059	2.509084187306243	0.1060810300500329	-0.4215787862455836	2.358616846362612	0.918488200092122	-0.4221964558391055	2.565918186128541	0.5363852401998508	-0.3807903328463685	2.282512534097032	1.176948374048136	-0.2717487884795862	2.488745125398436	0.09658017498871507	-0.3796165552948802	2.40552018494404	1.456983511387384	-0.3058028622233137	2.439900404757101	1.505511152250745	-0.6502744016422368	2.483090139047468	1.438536359171929	-0.691713706717169	2.376451617484063	1.464067972003875	-0.700762842332383	2.401456702201525	1.168802606178781	-0.8065647796731723	2.361776430073199	1.149534622844017	-0.7247005576752373	2.430590237059173	1.403022050927639	-0.7290755074914482	2.396102021418479	1.250982483916849	-0.7689251406628472	2.449192056393508	1.311567643803692	-0.7427945935325911	2.449526452679968	1.093885862795248	-0.7401298342747894	2.576478415545427	0.9728952889577658	-0.7078560372410793	2.536336029554422	0.9299909849941947	-0.7324094901214924	2.439321429473257	1.009468682863495	-0.6324352857739929	2.269267172264834	1.041630540573861	-0.5488984084409286	2.103624503122649	0.06759358695831903	-0.5732918445152761	2.362867672349367	0.04688748047163947	-0.535107831627366	2.294891012424772	0.01063118220617098	-0.6306466418503828	2.36065814822639	0.7568221583432617	-0.6548817064821505	2.419961709169728	0.6627674934927013	-0.5815544424935577	2.32775917654147	0.599782318754706	-0.6479918372468094	2.255474264358511	0.3218817436512615	-0.6249459451990127	2.275339436884427	0.232726627428824	-0.562616366032181	2.231157255564111	0.168103021501779	-0.6283984640890776	2.299529382312714	0.4918257202060243	-0.6347428488678154	2.297222874472912	0.4939231963502517	-0.5159105372112237	2.186001603689099	0.0720543828080597	-0.6251850070435429	2.193548927312345	0.07172832516586464	-0.5242099448915682	2.36131906600756	0.9198000170858022	-0.5816405296167266	2.299111243270828	0.4918437358785393	-0.5733541587594656	2.384705368311494	1.152940481936679	-0.7587216890590459	2.174346256108766	0.06315084037451152	-0.5669001859994289	2.436835680319341	1.449610696237786	-0.695638769290268	
198	2.395	2.465676401839125	1.452356184073884	-0.4971944084996172	2.355487690573668	1.53705267304476	-0.5076400358027165	2.422061053539819	1.510405792624637	-0.3517196188372452	2.457842473351215	1.445136111859051	-0.3014428763994642	2.359117188573844	1.468835287094329	-0.3098216137031681	2.286847761875467	1.19219236921046	-0.220942969747068	2.278644926492689	1.17551796622428	-0.3120594335153337	2.384821635906039	1.413324177046186	-0.277634609569559	2.311086046993553	1.271871331034678	-0.256477683947534	2.380059609397301	1.32093350083321	-0.2592108303920078	2.318611077811038	1.093666655647934	-0.2623568639343642	2.379079272622891	0.9276294150021823	-0.2384330276443853	2.318343653878651	0.9111019316245675	-0.2287847423585442	2.440612805549109	1.006240978254896	-0.3671035072231528	2.273488232923517	1.04033447803186	-0.4556374321238432	2.436778673594807	0.09439123558968796	-0.3754933061159284	2.698138485225297	0.08323740466796747	-0.4011920103054253	2.627312291590612	0.04753488212715213	-0.3075331084503801	2.447367613128375	0.7899351223045652	-0.3288362374548117	2.560736664271863	0.7463340766152514	-0.383484997938356	2.513699885961527	0.6440328625126996	-0.3186438862824913	2.547936063541708	0.3620429360273899	-0.3259109333557242	2.583720594569335	0.2748925928219424	-0.3838118943627803	2.545637154212799	0.2065336544361863	-0.3179919344160823	2.556122894128863	0.5399961590341055	-0.3205769803844293	2.571246374731091	0.5347691719242181	-0.4383683069686355	2.514882705976021	0.1049208610345296	-0.3199165975349092	2.527965213608253	0.1027151212600464	-0.4203009304268253	2.364111020186832	0.9176868346906559	-0.4219723150801708	2.56967970475898	0.5349302523386086	-0.3815002046569581	2.287067486342629	1.176818363061067	-0.2717835750557746	2.507853090674492	0.09271642528154905	-0.3783449880303921	2.411594613697256	1.456237990498017	-0.3053678958893843	2.446017287476494	1.504806535196561	-0.6498294306179428	2.489169856191484	1.437814005991567	-0.6912787841126842	2.382546548631923	1.463409115245667	-0.7003278204006844	2.408403266946974	1.168013711905985	-0.8061626337189937	2.3686511522252	1.148652400241329	-0.7243553051532416	2.436841291858207	1.402309741428901	-0.7286465209167937	2.402789315097456	1.25018242310761	-0.768536395795772	2.455690341347777	1.310900962986077	-0.7423322121187219	2.456938143559684	1.093725407177282	-0.739377718349322	2.584907150785494	0.9740167371971128	-0.7063491651096108	2.54521388203684	0.9306566987105115	-0.7308320975011279	2.444869351629778	1.008595840118444	-0.632221425012763	2.274979269895977	1.041159368926271	-0.5485063004490741	2.103832451085747	0.06817153396115913	-0.5734498106534497	2.362993517554942	0.0466125374719943	-0.5351805831500922	2.294921600969472	0.01053021000313702	-0.6307174322401642	2.364760950827159	0.7561521957367858	-0.6546971048013497	2.423263880097096	0.6616114831979921	-0.5813517511362535	2.330607242373944	0.5993779026971325	-0.6478656265708098	2.256679292844086	0.3219278645515284	-0.6249532853974089	2.276209893955292	0.2326591291917255	-0.5626806206500938	2.231744086161336	0.1682498999097806	-0.6284818602625755	2.301509327891971	0.4916466559184847	-0.6346605523270324	2.299139554350345	0.4937356203248435	-0.5158293355558895	2.186204570224183	0.07238146004896912	-0.6253046092147229	2.193788371076323	0.07196900643204196	-0.5243325961085946	2.366670964997772	0.9191030807018166	-0.581417843231445	2.301017298177197	0.4916846893132126	-0.5732837693517274	2.391621352497145	1.152113056232105	-0.7583430562572677	2.174535434154005	0.06349237039386452	-0.5670203411168223	2.442921996537525	1.448915884630533	-0.6952038036026043	
199	2.4	2.471780225373231	1.451586138229699	-0.496733629322721	2.361637076215666	1.536344390063993	-0.5071587865752577	2.428201780117509	1.509631292433892	-0.351246003491579	2.463949667112135	1.444332505830877	-0.3009832030850226	2.365236938194916	1.468086837784078	-0.309353678769409	2.291387552140674	1.192000831226465	-0.2209888749783065	2.283426090888474	1.175388349826227	-0.3121380537423121	2.390629630276882	1.412669738115671	-0.2772769013653443	2.316136369129203	1.271570183097414	-0.2564171354022252	2.385355679428098	1.320298729408705	-0.2588939804971493	2.32261561198351	1.093259789568337	-0.2622669793702921	2.38175371649261	0.9267800038152	-0.238095025817685	2.320854883918402	0.9106972565425895	-0.2287280662648759	2.446427872317869	1.00513285483426	-0.366871338973969	2.279317230417862	1.039773215692916	-0.4552190844120926	2.45575407715349	0.08870476273326067	-0.3744345270951114	2.71740608113781	0.085720840334543	-0.399396648296695	2.647489354377638	0.04825248984947451	-0.3057441857112412	2.452407219276319	0.7885320355174943	-0.3289500826850802	2.565534711360705	0.7445519849275001	-0.3837953709928549	2.518111530239989	0.6423207258579424	-0.3191256080206211	2.557403205580658	0.3600795041717006	-0.3258722434682668	2.59636128995254	0.2739467886739497	-0.38324522709551	2.560485984098967	0.2046243803248011	-0.3171927771440597	2.560078366490837	0.5381042736649528	-0.3213164738007755	2.575070741705906	0.5330591764102629	-0.4391324886601371	2.533286328650767	0.1019958885626256	-0.318699966408108	2.546727524131185	0.09976101010210303	-0.4190362567839189	2.369623402353999	0.9168413137400117	-0.4217404809978237	2.573287253695218	0.5333474079377329	-0.3822540463704651	2.291712507812356	1.176638239500834	-0.2718323669056097	2.526853825481822	0.0892722045809472	-0.3770863631811978	2.417707689250864	1.455460222634354	-0.3049043524193734	2.452143879742076	1.504076624420738	-0.649357784937614	2.495258566621184	1.437068709198291	-0.690821686514453	2.388648819390588	1.462723387707748	-0.6998618002535903	2.415334837782131	1.167200575488671	-0.8057216940165063	2.375523815514963	1.147748377341681	-0.7239645872025587	2.443094371924138	1.401572584058298	-0.7281893245294604	2.409469370822438	1.249358422360877	-0.7681101023082632	2.462186406034846	1.31020935264117	-0.7418423009551405	2.464317333957683	1.093521039269674	-0.7386057376339815	2.593254835296912	0.9750561845961767	-0.704866787391381	2.553996101806979	0.9312627139964776	-0.7292787983204246	2.450440895205333	1.007694142396276	-0.6319911408473129	2.28072296299614	1.040670416000323	-0.5480886127180808	2.104048163889934	0.0687787581328842	-0.5736180104331745	2.363119956002703	0.04633278769199094	-0.5352543893942351	2.294950984344048	0.01042861360982934	-0.6307891542902013	2.368890374971304	0.7554699986789527	-0.6545108354970238	2.426605603183682	0.6604535393305364	-0.5811561843149203	2.333502343018877	0.5989670198076039	-0.6477411491724694	2.257927932967344	0.3219776319645076	-0.624965141474334	2.277110669321124	0.2325927258460658	-0.5627510156554029	2.232351285358209	0.1684069277074372	-0.6285715358491081	2.30355137904655	0.4914641974448476	-0.6345818525865645	2.301127870453703	0.493540668471127	-0.5157515006035067	2.186413977186805	0.07272724585279472	-0.6254310907345948	2.194035291756256	0.07222548989580174	-0.5244623065027925	2.372036888998393	0.9183817069789065	-0.5811871422627272	2.302992937104482	0.4915187035236624	-0.5732162514845351	2.398529755838364	1.151262709904455	-0.7579226443025059	2.174730592049491	0.06385353833705631	-0.5671473332554559	2.449016588759912	1.448196426001768	-0.6947428358488038	
